HIERARCHY
ROOT root
{
	OFFSET 0.000000 0.000000 0.000000
	CHANNELS 6 Xposition Yposition Zposition Zrotation Yrotation Xrotation
	JOINT lhip
	{
		OFFSET 0.058581 -0.082280 -0.017664
		CHANNELS 3 Zrotation Yrotation Xrotation
		JOINT lknee
		{
			OFFSET 0.043451 -0.386469 0.008037
			CHANNELS 3 Zrotation Yrotation Xrotation
			JOINT lankle
			{
				OFFSET -0.014790 -0.426874 -0.037428
				CHANNELS 3 Zrotation Yrotation Xrotation
				JOINT ltoe
				{
					OFFSET 0.041054 -0.060286 0.122042
					CHANNELS 3 Zrotation Yrotation Xrotation
					End Site
					{
						OFFSET 0.000000 0.000000 0.000000
					}
				}
			}
		}
	}
	JOINT rhip
	{
		OFFSET -0.060310 -0.090513 -0.013543
		CHANNELS 3 Zrotation Yrotation Xrotation
		JOINT rknee
		{
			OFFSET -0.043257 -0.383688 -0.004843
			CHANNELS 3 Zrotation Yrotation Xrotation
			JOINT rankle
			{
				OFFSET 0.019056 -0.420046 -0.034562
				CHANNELS 3 Zrotation Yrotation Xrotation
				JOINT rtoe
				{
					OFFSET -0.034840 -0.062106 0.130323
					CHANNELS 3 Zrotation Yrotation Xrotation
					End Site
					{
						OFFSET 0.000000 0.000000 0.000000
					}
				}
			}
		}
	}
	JOINT lowerback
	{
		OFFSET 0.004439 0.124404 -0.038385
		CHANNELS 3 Zrotation Yrotation Xrotation
		JOINT upperback
		{
			OFFSET 0.004488 0.137956 0.026820
			CHANNELS 3 Zrotation Yrotation Xrotation
			JOINT chest
			{
				OFFSET -0.002265 0.056032 0.002855
				CHANNELS 3 Zrotation Yrotation Xrotation
				JOINT lowerneck
				{
					OFFSET -0.013390 0.211636 -0.033468
					CHANNELS 3 Zrotation Yrotation Xrotation
					JOINT upperneck
					{
						OFFSET 0.010113 0.088937 0.050410
						CHANNELS 3 Zrotation Yrotation Xrotation
						End Site
						{
							OFFSET 0.000000 0.000000 0.000000
						}
					}
				}
				JOINT lclavicle
				{
					OFFSET 0.071702 0.114000 -0.018898
					CHANNELS 3 Zrotation Yrotation Xrotation
					JOINT lshoulder
					{
						OFFSET 0.122921 0.045205 -0.019046
						CHANNELS 3 Zrotation Yrotation Xrotation
						JOINT lelbow
						{
							OFFSET 0.255332 -0.015649 -0.022946
							CHANNELS 3 Zrotation Yrotation Xrotation
							JOINT lwrist
							{
								OFFSET 0.265709 0.012698 -0.007375
								CHANNELS 3 Zrotation Yrotation Xrotation
								End Site
								{
									OFFSET 0.000000 0.000000 0.000000
								}
							}
						}
					}
				}
				JOINT rclavicle
				{
					OFFSET -0.082954 0.112472 -0.023707
					CHANNELS 3 Zrotation Yrotation Xrotation
					JOINT rshoulder
					{
						OFFSET -0.113228 0.046853 -0.008472
						CHANNELS 3 Zrotation Yrotation Xrotation
						JOINT relbow
						{
							OFFSET -0.260127 -0.014369 -0.031269
							CHANNELS 3 Zrotation Yrotation Xrotation
							JOINT rwrist
							{
								OFFSET -0.269108 0.006794 -0.006027
								CHANNELS 3 Zrotation Yrotation Xrotation
								End Site
								{
									OFFSET 0.000000 0.000000 0.000000
								}
							}
						}
					}
				}
			}
		}
	}
}
MOTION
Frames: 7
Frame Time: 0.033333
-0.532092 0.660582 0.990124 87.393479 -3.055582 84.741490 2.176692 -0.068416 0.183420 -3.255982 -7.852640 5.108899 1.909704 7.881642 -6.001501 0.000000 -0.000000 0.000000 -2.213307 -2.787187 3.327017 -0.370752 2.003846 7.138465 -3.791708 -9.519263 -12.255298 0.000000 -0.000000 0.000000 -1.058732 2.733841 2.623129 1.522226 -2.955510 9.378631 -1.348743 0.432543 -3.068309 6.656495 -4.884236 2.138455 4.387436 -3.181507 27.903788 -33.342534 3.289070 0.311120 -52.696775 -8.793423 11.613673 12.553268 -17.165175 -3.205139 -0.604515 -6.622248 5.197582 33.996276 1.489485 3.038361 46.683655 4.258847 15.001404 -11.826486 16.913886 -1.741613 3.155647 6.906746 10.619732 
-0.532335 0.661429 0.990424 87.233461 -3.415774 84.740732 1.784199 -0.183299 0.279645 -3.418853 -7.893980 4.940071 1.810749 7.690975 -6.266005 0.000000 -0.000000 0.000000 -2.774243 -2.704159 3.185357 -0.194787 2.010106 7.325447 -3.501519 -9.224147 -12.345366 0.000000 -0.000000 0.000000 -1.467350 2.751089 2.496925 1.540930 -2.785186 9.448814 -1.210553 0.305390 -3.032513 6.559388 -4.947034 1.862049 4.407109 -3.294675 27.868736 -33.492708 2.896867 0.340641 -52.682354 -9.299433 11.671883 12.760145 -17.746437 -2.925675 -0.483880 -6.892136 5.438048 34.121436 1.570177 3.416870 46.622854 4.476802 14.911073 -11.884853 17.229356 -1.774718 3.049322 7.116875 10.580119 
-0.533406 0.662787 0.990921 87.513072 -3.861288 85.066204 1.277847 0.920070 -0.505986 -3.810755 -8.338923 5.479202 1.599841 7.401400 -6.340920 0.000000 -0.000000 0.000000 -3.557107 -2.834629 2.546772 0.147505 1.687416 7.657299 -3.675034 -9.060408 -12.545697 0.000000 -0.000000 0.000000 -2.147742 2.418906 2.217216 1.734531 -2.811030 9.319333 -0.986972 0.204376 -3.158455 6.426534 -5.041397 1.606329 4.370441 -3.118543 28.107709 -33.599639 2.467368 0.382217 -52.882819 -9.898887 11.947516 12.499533 -17.588839 -3.323491 0.206133 -6.641739 5.153702 34.155319 1.452285 2.938526 46.299894 4.463709 14.823587 -11.396483 17.482454 -1.674870 2.967760 7.148826 10.761674 
-0.533601 0.662925 0.991094 87.254217 -3.778191 85.082813 1.270532 0.828081 -0.408317 -3.687657 -8.272142 5.388063 1.646648 7.380951 -6.434397 0.000000 -0.000000 0.000000 -3.504774 -2.759392 2.450039 0.188041 1.687867 7.711696 -3.905571 -8.988947 -12.543312 0.000000 -0.000000 0.000000 -2.022085 2.473652 2.073446 1.731413 -2.724428 9.385746 -0.975952 -0.023986 -3.172572 6.388944 -4.585496 1.338004 4.546519 -2.729429 27.945053 -33.681637 2.145844 0.532938 -53.002260 -10.339531 11.801453 12.902621 -18.174556 -3.128042 -0.290683 -6.719187 5.545967 34.216672 1.554172 3.272639 46.343364 4.762143 14.724312 -11.474294 17.989144 -1.633491 3.244587 7.252853 10.641228 
-0.533121 0.662860 0.991254 86.890278 -3.686798 85.176309 1.368829 0.946670 -0.370521 -3.678870 -7.894643 5.268260 1.625385 7.408623 -6.391452 0.000000 -0.000000 0.000000 -3.408365 -2.774031 2.346379 0.169779 1.932424 7.664167 -4.045236 -8.677797 -12.680339 0.000000 -0.000000 0.000000 -2.102354 2.641635 1.976569 1.962473 -2.713563 9.473169 -0.868847 -0.077694 -3.548423 6.164114 -4.940479 1.682953 4.534161 -3.106614 27.624719 -33.518229 1.879839 0.519867 -53.497901 -10.382751 12.113529 12.625396 -18.351857 -3.519219 -0.312875 -6.474677 5.439804 33.964436 1.558866 2.504369 46.505417 4.274329 14.892022 -11.297124 18.383177 -1.335461 3.608799 7.489149 11.236799 
-0.533652 0.662830 0.991169 86.700109 -3.566868 85.168525 1.517605 0.781984 -0.359580 -3.666645 -7.637819 5.259001 1.573615 7.461802 -6.455426 0.000000 -0.000000 0.000000 -3.217347 -2.755484 2.237284 0.052257 1.927472 7.852247 -3.787531 -8.706582 -12.538896 0.000000 -0.000000 0.000000 -2.220680 2.774571 2.291508 2.089829 -2.653056 9.153268 -0.635810 -0.226888 -3.595348 6.171810 -5.017164 1.541521 4.492437 -3.244505 27.562783 -33.557215 1.553892 0.447719 -53.785063 -10.406465 12.440628 12.780012 -18.918413 -3.130356 -0.960863 -6.138520 5.782708 33.804148 1.552961 2.409105 46.698731 4.287975 14.787964 -11.647674 19.099056 -1.645519 3.477645 7.275016 11.309878 
-0.532968 0.663205 0.991094 86.169908 -3.552884 85.202877 1.558032 0.993279 -0.156035 -3.653868 -7.558196 5.055665 1.678118 7.483723 -6.492795 0.000000 -0.000000 0.000000 -3.265538 -2.750209 2.217443 0.073536 2.212308 7.794540 -3.748077 -8.473715 -12.424291 0.000000 -0.000000 0.000000 -2.255481 2.938988 2.010646 2.126984 -2.436278 9.353344 -0.580786 -0.343463 -3.786488 6.158443 -5.224210 1.606552 4.642809 -3.101661 27.579885 -33.757662 1.247934 0.896465 -53.714430 -10.495986 12.437962 13.103062 -19.579269 -2.947175 -0.658384 -6.629329 5.754707 33.601571 1.658541 2.622108 46.884159 4.258684 14.746277 -11.601827 19.633977 -1.516040 3.349614 7.614170 10.678840 
